<svg xmlns="http://www.w3.org/2000/svg" xmlns:xlink="http://www.w3.org/1999/xlink" zoomAndPan="magnify" preserveAspectRatio="xMidYMid meet" version="1.2" viewBox="82.01 95.9 202.21 146.15"><defs><clipPath id="8367d3a585"><path d="M 257 101.890625 L 272.394531 101.890625 L 272.394531 143 L 257 143 Z M 257 101.890625 "/></clipPath><clipPath id="b151fe1495"><path d="M 243 103 L 267 103 L 267 143.890625 L 243 143.890625 Z M 243 103 "/></clipPath><clipPath id="f1584bacba"><path d="M 234.144531 123 L 245 123 L 245 132 L 234.144531 132 Z M 234.144531 123 "/></clipPath></defs><g id="e5dae32b2a"><g clip-rule="nonzero" clip-path="url(#8367d3a585)"><path style=" stroke:none;fill-rule:nonzero;fill:#ffffff;fill-opacity:1;" d="M 257.371094 104.933594 C 257.820312 104.4375 258.292969 103.953125 258.804688 103.507812 C 259.0625 103.285156 259.328125 103.074219 259.605469 102.875 C 259.882812 102.679688 260.175781 102.5 260.484375 102.34375 C 260.792969 102.191406 261.121094 102.066406 261.464844 101.984375 C 261.636719 101.945312 261.8125 101.917969 261.988281 101.90625 C 262.167969 101.894531 262.347656 101.898438 262.523438 101.917969 C 262.703125 101.9375 262.878906 101.976562 263.050781 102.035156 C 263.222656 102.089844 263.386719 102.160156 263.542969 102.246094 C 263.703125 102.332031 263.851562 102.429688 263.992188 102.539062 C 264.058594 102.59375 264.128906 102.648438 264.195312 102.710938 C 264.210938 102.722656 264.226562 102.738281 264.242188 102.753906 L 264.265625 102.777344 C 264.273438 102.785156 264.285156 102.792969 264.292969 102.800781 L 264.316406 102.824219 C 264.324219 102.832031 264.335938 102.839844 264.34375 102.847656 L 264.386719 102.898438 L 264.433594 102.949219 L 264.472656 102.996094 C 264.503906 103.03125 264.53125 103.0625 264.558594 103.09375 C 264.585938 103.128906 264.613281 103.160156 264.640625 103.195312 L 264.722656 103.296875 C 264.828125 103.429688 264.929688 103.566406 265.027344 103.707031 C 265.125 103.847656 265.222656 103.988281 265.3125 104.132812 L 265.382812 104.238281 L 265.417969 104.292969 L 265.449219 104.347656 L 265.582031 104.566406 C 265.753906 104.859375 265.917969 105.160156 266.070312 105.464844 C 266.222656 105.765625 266.367188 106.074219 266.503906 106.382812 C 267.046875 107.625 267.457031 108.921875 267.761719 110.238281 L 267.871094 110.730469 L 267.921875 110.980469 C 267.941406 111.0625 267.957031 111.144531 267.972656 111.226562 C 268.035156 111.558594 268.09375 111.890625 268.144531 112.222656 C 268.199219 112.558594 268.242188 112.890625 268.285156 113.226562 C 268.324219 113.558594 268.363281 113.894531 268.394531 114.230469 C 268.421875 114.566406 268.453125 114.902344 268.472656 115.234375 C 268.492188 115.570312 268.511719 115.90625 268.523438 116.242188 C 268.535156 116.578125 268.542969 116.917969 268.546875 117.253906 L 268.550781 117.503906 L 268.550781 117.757812 C 268.546875 117.839844 268.546875 117.925781 268.546875 118.007812 L 268.542969 118.261719 C 268.542969 118.285156 268.542969 118.304688 268.542969 118.328125 L 268.539062 118.390625 C 268.535156 118.433594 268.53125 118.476562 268.527344 118.515625 C 268.519531 118.601562 268.511719 118.683594 268.5 118.769531 C 268.484375 118.9375 268.460938 119.105469 268.4375 119.269531 C 268.386719 119.605469 268.324219 119.9375 268.246094 120.265625 C 268.167969 120.59375 268.074219 120.917969 267.964844 121.238281 C 267.855469 121.558594 267.730469 121.875 267.582031 122.179688 C 267.4375 122.488281 267.273438 122.785156 267.082031 123.066406 C 266.890625 123.351562 266.675781 123.617188 266.433594 123.859375 C 266.191406 124.101562 265.914062 124.316406 265.609375 124.484375 C 265.457031 124.566406 265.296875 124.640625 265.132812 124.695312 C 264.964844 124.75 264.792969 124.789062 264.617188 124.808594 C 264.445312 124.832031 264.265625 124.835938 264.09375 124.820312 C 263.917969 124.808594 263.742188 124.773438 263.574219 124.726562 C 263.40625 124.679688 263.242188 124.617188 263.082031 124.542969 C 263.042969 124.523438 263 124.503906 262.960938 124.480469 C 262.921875 124.457031 262.882812 124.433594 262.84375 124.40625 C 262.765625 124.351562 262.691406 124.289062 262.628906 124.214844 C 262.566406 124.136719 262.515625 124.050781 262.480469 123.953125 C 262.445312 123.859375 262.429688 123.753906 262.433594 123.65625 C 262.433594 123.554688 262.453125 123.453125 262.488281 123.359375 C 262.523438 123.269531 262.566406 123.183594 262.621094 123.105469 C 262.730469 122.945312 262.871094 122.816406 263.023438 122.714844 C 263.175781 122.609375 263.339844 122.53125 263.511719 122.472656 C 263.597656 122.445312 263.683594 122.421875 263.773438 122.402344 C 263.859375 122.382812 263.949219 122.367188 264.039062 122.359375 C 264.21875 122.339844 264.398438 122.339844 264.574219 122.355469 C 264.929688 122.382812 265.273438 122.46875 265.601562 122.597656 C 265.929688 122.726562 266.238281 122.890625 266.527344 123.082031 C 266.671875 123.179688 266.8125 123.28125 266.949219 123.386719 C 267.085938 123.492188 267.21875 123.605469 267.34375 123.71875 C 267.410156 123.777344 267.472656 123.835938 267.53125 123.898438 L 267.625 123.984375 C 267.652344 124.015625 267.683594 124.042969 267.714844 124.070312 L 267.804688 124.160156 C 267.835938 124.1875 267.867188 124.21875 267.894531 124.246094 C 267.925781 124.277344 267.957031 124.308594 267.988281 124.335938 C 268.015625 124.367188 268.046875 124.394531 268.078125 124.425781 C 268.316406 124.667969 268.550781 124.914062 268.773438 125.171875 C 269.222656 125.679688 269.640625 126.21875 270.023438 126.785156 C 270.785156 127.914062 271.394531 129.15625 271.796875 130.460938 C 272 131.113281 272.148438 131.785156 272.25 132.460938 C 272.347656 133.136719 272.390625 133.820312 272.382812 134.503906 C 272.367188 135.871094 272.140625 137.234375 271.6875 138.523438 C 271.574219 138.847656 271.445312 139.164062 271.300781 139.472656 C 271.230469 139.628906 271.152344 139.78125 271.074219 139.933594 C 270.996094 140.085938 270.910156 140.234375 270.824219 140.378906 C 270.644531 140.671875 270.453125 140.957031 270.238281 141.222656 C 270.132812 141.359375 270.019531 141.488281 269.902344 141.613281 C 269.785156 141.738281 269.664062 141.859375 269.535156 141.976562 C 269.277344 142.203125 268.992188 142.40625 268.683594 142.5625 C 268.527344 142.640625 268.367188 142.707031 268.199219 142.753906 C 268.113281 142.777344 268.027344 142.800781 267.941406 142.8125 C 267.898438 142.820312 267.855469 142.828125 267.8125 142.832031 C 267.789062 142.832031 267.769531 142.835938 267.746094 142.835938 L 267.683594 142.839844 C 267.34375 142.863281 267 142.851562 266.664062 142.8125 C 266.496094 142.789062 266.328125 142.761719 266.164062 142.730469 C 266 142.695312 265.835938 142.65625 265.671875 142.609375 L 265.683594 142.5625 C 265.847656 142.597656 266.011719 142.625 266.179688 142.648438 C 266.34375 142.671875 266.507812 142.6875 266.675781 142.699219 C 267.007812 142.71875 267.339844 142.707031 267.667969 142.671875 L 267.730469 142.664062 C 267.75 142.660156 267.769531 142.660156 267.789062 142.65625 C 267.828125 142.648438 267.867188 142.640625 267.90625 142.632812 C 267.984375 142.617188 268.0625 142.59375 268.140625 142.566406 C 268.292969 142.515625 268.4375 142.445312 268.578125 142.367188 C 268.863281 142.210938 269.117188 142.007812 269.355469 141.78125 C 269.472656 141.667969 269.585938 141.546875 269.691406 141.421875 C 269.796875 141.300781 269.898438 141.171875 269.996094 141.039062 C 270.09375 140.90625 270.1875 140.769531 270.277344 140.632812 C 270.363281 140.492188 270.449219 140.351562 270.527344 140.207031 C 270.609375 140.066406 270.683594 139.917969 270.753906 139.769531 C 270.828125 139.625 270.898438 139.472656 270.960938 139.320312 C 271.089844 139.019531 271.207031 138.710938 271.308594 138.394531 C 271.410156 138.082031 271.496094 137.765625 271.570312 137.445312 C 271.644531 137.121094 271.707031 136.796875 271.757812 136.472656 C 271.855469 135.820312 271.902344 135.160156 271.898438 134.503906 C 271.898438 134.171875 271.886719 133.84375 271.859375 133.515625 C 271.835938 133.1875 271.796875 132.859375 271.746094 132.535156 C 271.648438 131.886719 271.5 131.242188 271.308594 130.613281 C 271.113281 129.984375 270.875 129.367188 270.59375 128.773438 C 270.523438 128.625 270.449219 128.476562 270.375 128.328125 C 270.300781 128.183594 270.222656 128.035156 270.140625 127.894531 C 269.980469 127.605469 269.808594 127.324219 269.628906 127.046875 C 269.269531 126.492188 268.867188 125.964844 268.4375 125.460938 C 268.222656 125.210938 268 124.964844 267.769531 124.726562 C 267.742188 124.695312 267.714844 124.667969 267.683594 124.636719 C 267.65625 124.609375 267.625 124.578125 267.597656 124.550781 C 267.566406 124.519531 267.539062 124.488281 267.507812 124.460938 L 267.417969 124.371094 C 267.390625 124.34375 267.359375 124.3125 267.328125 124.28125 L 267.242188 124.195312 C 267.183594 124.136719 267.125 124.082031 267.066406 124.023438 C 266.945312 123.914062 266.824219 123.804688 266.695312 123.703125 C 266.570312 123.601562 266.441406 123.503906 266.304688 123.414062 C 266.039062 123.230469 265.757812 123.074219 265.460938 122.949219 C 265.164062 122.828125 264.855469 122.742188 264.542969 122.710938 C 264.386719 122.695312 264.226562 122.691406 264.070312 122.703125 C 263.992188 122.710938 263.917969 122.71875 263.839844 122.734375 C 263.765625 122.75 263.6875 122.769531 263.613281 122.789062 C 263.46875 122.835938 263.328125 122.898438 263.199219 122.980469 C 263.074219 123.0625 262.960938 123.164062 262.875 123.28125 C 262.789062 123.398438 262.734375 123.53125 262.726562 123.664062 C 262.722656 123.730469 262.734375 123.796875 262.753906 123.859375 C 262.773438 123.921875 262.808594 123.980469 262.851562 124.035156 C 262.890625 124.089844 262.945312 124.140625 263.003906 124.183594 C 263.035156 124.207031 263.066406 124.226562 263.097656 124.246094 C 263.128906 124.265625 263.164062 124.28125 263.199219 124.300781 C 263.34375 124.371094 263.492188 124.433594 263.644531 124.480469 C 263.953125 124.570312 264.273438 124.605469 264.59375 124.574219 C 264.75 124.558594 264.910156 124.523438 265.0625 124.476562 C 265.214844 124.429688 265.363281 124.367188 265.507812 124.289062 C 265.792969 124.140625 266.054688 123.941406 266.292969 123.714844 C 266.527344 123.488281 266.738281 123.234375 266.925781 122.960938 C 267.117188 122.691406 267.28125 122.402344 267.425781 122.105469 C 267.71875 121.507812 267.9375 120.875 268.09375 120.230469 C 268.117188 120.148438 268.132812 120.066406 268.152344 119.984375 C 268.167969 119.90625 268.1875 119.824219 268.203125 119.742188 C 268.234375 119.578125 268.265625 119.414062 268.289062 119.25 C 268.316406 119.082031 268.335938 118.917969 268.355469 118.753906 C 268.367188 118.671875 268.375 118.585938 268.382812 118.503906 C 268.386719 118.460938 268.390625 118.421875 268.394531 118.378906 L 268.398438 118.320312 C 268.398438 118.296875 268.398438 118.277344 268.398438 118.257812 L 268.40625 118.007812 C 268.40625 117.925781 268.40625 117.839844 268.40625 117.757812 L 268.40625 117.503906 L 268.402344 117.253906 C 268.398438 116.917969 268.386719 116.585938 268.371094 116.25 C 268.355469 115.917969 268.332031 115.582031 268.304688 115.25 C 268.273438 114.917969 268.238281 114.582031 268.195312 114.25 C 268.113281 113.585938 268.007812 112.929688 267.875 112.273438 C 267.746094 111.617188 267.59375 110.96875 267.421875 110.324219 C 267.398438 110.242188 267.375 110.164062 267.351562 110.082031 C 267.332031 110.003906 267.308594 109.921875 267.285156 109.84375 C 267.261719 109.761719 267.238281 109.683594 267.214844 109.601562 L 267.179688 109.484375 L 267.144531 109.363281 C 267.046875 109.042969 266.941406 108.726562 266.832031 108.414062 C 266.617188 107.785156 266.375 107.164062 266.109375 106.554688 C 265.976562 106.253906 265.835938 105.953125 265.6875 105.65625 C 265.539062 105.359375 265.382812 105.066406 265.21875 104.78125 L 265.15625 104.671875 L 265.09375 104.566406 L 265.058594 104.515625 L 265.027344 104.460938 L 264.960938 104.355469 C 264.875 104.21875 264.785156 104.078125 264.691406 103.945312 C 264.597656 103.808594 264.5 103.675781 264.402344 103.546875 L 264.324219 103.449219 C 264.300781 103.417969 264.273438 103.386719 264.246094 103.351562 C 264.222656 103.320312 264.195312 103.289062 264.167969 103.257812 L 264.128906 103.210938 L 264.089844 103.167969 L 264.054688 103.125 C 264.046875 103.117188 264.039062 103.109375 264.035156 103.105469 L 264.011719 103.085938 C 264.007812 103.078125 264 103.070312 263.992188 103.0625 L 263.972656 103.042969 C 263.957031 103.03125 263.941406 103.015625 263.929688 103.003906 C 263.871094 102.949219 263.808594 102.898438 263.746094 102.847656 C 263.625 102.75 263.492188 102.660156 263.359375 102.582031 C 263.085938 102.425781 262.789062 102.324219 262.476562 102.28125 C 262.324219 102.261719 262.167969 102.253906 262.007812 102.261719 C 261.851562 102.265625 261.695312 102.289062 261.539062 102.320312 C 261.226562 102.382812 260.917969 102.492188 260.625 102.628906 C 260.328125 102.765625 260.042969 102.929688 259.765625 103.109375 C 259.488281 103.292969 259.222656 103.488281 258.964844 103.695312 C 258.445312 104.113281 257.957031 104.570312 257.480469 105.039062 Z M 257.371094 104.933594 "/></g><g clip-rule="nonzero" clip-path="url(#b151fe1495)"><path style=" stroke:none;fill-rule:nonzero;fill:#ffffff;fill-opacity:1;" d="M 244.734375 131.734375 C 244.699219 131.757812 244.664062 131.78125 244.632812 131.808594 C 244.613281 131.820312 244.597656 131.835938 244.582031 131.847656 C 244.566406 131.863281 244.550781 131.875 244.535156 131.890625 C 244.507812 131.921875 244.480469 131.953125 244.453125 131.984375 C 244.429688 132.015625 244.40625 132.050781 244.386719 132.085938 C 244.304688 132.226562 244.28125 132.394531 244.300781 132.558594 C 244.324219 132.722656 244.382812 132.886719 244.460938 133.039062 C 244.503906 133.113281 244.546875 133.191406 244.59375 133.261719 C 244.640625 133.335938 244.691406 133.40625 244.746094 133.476562 C 244.851562 133.617188 244.96875 133.753906 245.089844 133.882812 C 245.210938 134.011719 245.335938 134.136719 245.464844 134.257812 C 245.726562 134.503906 246 134.730469 246.277344 134.953125 C 246.558594 135.175781 246.847656 135.386719 247.140625 135.589844 C 247.4375 135.792969 247.734375 135.992188 248.039062 136.179688 C 248.074219 136.203125 248.113281 136.226562 248.152344 136.246094 L 248.179688 136.265625 L 248.183594 136.269531 L 248.191406 136.273438 L 248.207031 136.277344 L 248.265625 136.308594 C 248.34375 136.351562 248.425781 136.394531 248.503906 136.4375 C 248.664062 136.523438 248.820312 136.613281 248.976562 136.703125 C 249.289062 136.886719 249.597656 137.078125 249.902344 137.28125 C 250.503906 137.683594 251.078125 138.136719 251.601562 138.652344 C 252.121094 139.167969 252.582031 139.746094 252.957031 140.378906 C 253.140625 140.695312 253.304688 141.027344 253.445312 141.367188 C 253.480469 141.453125 253.511719 141.539062 253.546875 141.625 L 253.570312 141.691406 L 253.582031 141.722656 L 253.585938 141.738281 L 253.59375 141.757812 L 253.605469 141.792969 C 253.609375 141.804688 253.609375 141.816406 253.613281 141.828125 C 253.621094 141.855469 253.628906 141.878906 253.632812 141.90625 C 253.644531 141.957031 253.652344 142.007812 253.660156 142.058594 C 253.660156 142.085938 253.664062 142.113281 253.664062 142.140625 C 253.664062 142.167969 253.664062 142.195312 253.664062 142.222656 C 253.65625 142.328125 253.632812 142.441406 253.585938 142.542969 C 253.542969 142.648438 253.476562 142.742188 253.398438 142.820312 C 253.324219 142.898438 253.234375 142.964844 253.140625 143.015625 C 253.050781 143.0625 252.953125 143.101562 252.855469 143.128906 C 252.757812 143.15625 252.65625 143.175781 252.558594 143.183594 C 252.359375 143.203125 252.15625 143.191406 251.964844 143.148438 C 251.769531 143.105469 251.578125 143.035156 251.40625 142.933594 L 251.398438 142.929688 L 251.390625 142.921875 C 251.238281 142.8125 251.105469 142.683594 250.988281 142.542969 C 250.871094 142.40625 250.765625 142.261719 250.667969 142.109375 C 250.476562 141.8125 250.324219 141.492188 250.191406 141.171875 C 250.058594 140.847656 249.949219 140.515625 249.859375 140.175781 C 249.816406 140.007812 249.777344 139.835938 249.746094 139.664062 C 249.730469 139.578125 249.714844 139.488281 249.703125 139.402344 C 249.695312 139.359375 249.691406 139.3125 249.6875 139.269531 L 249.671875 139.144531 C 249.632812 138.800781 249.609375 138.457031 249.578125 138.121094 C 249.546875 137.789062 249.507812 137.457031 249.429688 137.140625 C 249.390625 136.984375 249.34375 136.828125 249.289062 136.675781 C 249.273438 136.640625 249.257812 136.601562 249.242188 136.566406 C 249.226562 136.527344 249.210938 136.488281 249.195312 136.453125 C 249.179688 136.417969 249.164062 136.378906 249.144531 136.34375 L 249.117188 136.289062 L 249.089844 136.238281 C 249.074219 136.199219 249.054688 136.167969 249.035156 136.136719 C 249.023438 136.121094 249.011719 136.101562 249 136.085938 C 248.992188 136.070312 248.980469 136.050781 248.96875 136.035156 C 248.945312 136.003906 248.925781 135.96875 248.902344 135.9375 L 248.863281 135.890625 L 248.828125 135.839844 C 248.730469 135.710938 248.621094 135.589844 248.507812 135.46875 C 248.28125 135.226562 248.035156 135 247.785156 134.765625 C 247.535156 134.535156 247.28125 134.300781 247.042969 134.039062 C 247.011719 134.007812 246.984375 133.972656 246.953125 133.941406 C 246.925781 133.90625 246.898438 133.875 246.867188 133.839844 L 246.828125 133.785156 L 246.785156 133.734375 L 246.707031 133.632812 C 246.679688 133.597656 246.652344 133.5625 246.628906 133.527344 L 246.550781 133.425781 C 246.523438 133.390625 246.5 133.355469 246.472656 133.320312 L 246.398438 133.214844 C 246.199219 132.929688 246.011719 132.636719 245.839844 132.335938 C 245.496094 131.730469 245.203125 131.101562 244.960938 130.453125 C 244.722656 129.804688 244.53125 129.136719 244.382812 128.460938 C 244.234375 127.789062 244.132812 127.105469 244.0625 126.421875 C 243.996094 125.734375 243.964844 125.046875 243.960938 124.359375 C 243.957031 122.984375 244.074219 121.613281 244.273438 120.257812 C 244.375 119.582031 244.496094 118.90625 244.636719 118.238281 C 244.777344 117.566406 244.9375 116.902344 245.113281 116.242188 C 245.46875 114.917969 245.890625 113.617188 246.375 112.339844 C 246.496094 112.019531 246.625 111.703125 246.753906 111.386719 C 246.882812 111.070312 247.019531 110.753906 247.15625 110.441406 C 247.4375 109.820312 247.734375 109.203125 248.054688 108.597656 C 248.21875 108.296875 248.386719 108 248.566406 107.707031 C 248.65625 107.5625 248.75 107.417969 248.84375 107.273438 C 248.941406 107.132812 249.039062 106.992188 249.144531 106.855469 C 249.199219 106.785156 249.253906 106.71875 249.308594 106.652344 C 249.363281 106.585938 249.417969 106.523438 249.472656 106.457031 C 249.582031 106.324219 249.695312 106.195312 249.808594 106.066406 C 250.035156 105.8125 250.265625 105.5625 250.511719 105.320312 C 250.753906 105.078125 251.003906 104.84375 251.269531 104.625 C 251.535156 104.40625 251.816406 104.203125 252.109375 104.023438 C 252.40625 103.847656 252.714844 103.691406 253.046875 103.582031 C 253.375 103.472656 253.722656 103.410156 254.074219 103.414062 C 254.25 103.417969 254.425781 103.4375 254.59375 103.476562 C 254.765625 103.511719 254.933594 103.566406 255.09375 103.632812 C 255.253906 103.703125 255.410156 103.785156 255.554688 103.878906 C 255.628906 103.925781 255.699219 103.976562 255.769531 104.027344 C 255.804688 104.054688 255.839844 104.082031 255.871094 104.109375 C 255.890625 104.121094 255.90625 104.136719 255.921875 104.148438 C 255.941406 104.164062 255.957031 104.175781 255.972656 104.195312 C 256.039062 104.253906 256.097656 104.316406 256.15625 104.382812 C 256.210938 104.449219 256.269531 104.515625 256.320312 104.582031 C 256.425781 104.71875 256.527344 104.859375 256.625 105 C 256.816406 105.285156 256.992188 105.578125 257.160156 105.878906 C 257.496094 106.472656 257.800781 107.085938 258.089844 107.707031 C 258.375 108.324219 258.640625 108.953125 258.894531 109.589844 C 259.398438 110.859375 259.847656 112.148438 260.226562 113.464844 C 260.414062 114.121094 260.589844 114.78125 260.738281 115.449219 C 260.890625 116.117188 261.019531 116.792969 261.117188 117.46875 C 261.210938 118.148438 261.277344 118.835938 261.292969 119.523438 C 261.300781 119.871094 261.292969 120.214844 261.269531 120.5625 C 261.246094 120.910156 261.203125 121.253906 261.128906 121.597656 C 261.058594 121.941406 260.960938 122.28125 260.816406 122.609375 C 260.746094 122.773438 260.664062 122.933594 260.566406 123.085938 C 260.519531 123.164062 260.46875 123.242188 260.417969 123.3125 C 260.367188 123.382812 260.316406 123.449219 260.265625 123.519531 C 260.058594 123.796875 259.847656 124.0625 259.632812 124.332031 C 259.421875 124.597656 259.207031 124.863281 258.988281 125.128906 C 258.113281 126.179688 257.207031 127.207031 256.257812 128.191406 C 255.78125 128.683594 255.292969 129.164062 254.78125 129.628906 C 254.527344 129.859375 254.269531 130.085938 254 130.304688 C 253.734375 130.523438 253.460938 130.734375 253.171875 130.933594 C 252.886719 131.132812 252.585938 131.320312 252.261719 131.476562 C 252.101562 131.550781 251.933594 131.621094 251.753906 131.675781 C 251.664062 131.703125 251.570312 131.722656 251.476562 131.742188 C 251.378906 131.757812 251.28125 131.765625 251.175781 131.761719 C 251.074219 131.761719 250.96875 131.75 250.863281 131.71875 C 250.761719 131.691406 250.65625 131.644531 250.566406 131.582031 C 250.519531 131.550781 250.476562 131.515625 250.433594 131.480469 L 250.40625 131.453125 C 250.394531 131.441406 250.386719 131.433594 250.375 131.421875 C 250.367188 131.414062 250.359375 131.402344 250.351562 131.394531 L 250.324219 131.363281 C 250.261719 131.289062 250.203125 131.203125 250.152344 131.109375 C 250.128906 131.0625 250.105469 131.011719 250.089844 130.960938 C 250.070312 130.910156 250.054688 130.855469 250.046875 130.804688 C 250.035156 130.75 250.027344 130.695312 250.027344 130.640625 C 250.023438 130.585938 250.027344 130.53125 250.03125 130.476562 C 250.039062 130.421875 250.046875 130.371094 250.058594 130.320312 C 250.070312 130.269531 250.085938 130.21875 250.105469 130.171875 C 250.136719 130.074219 250.183594 129.984375 250.230469 129.898438 C 250.328125 129.730469 250.445312 129.585938 250.570312 129.449219 C 250.695312 129.316406 250.828125 129.191406 250.960938 129.078125 C 251.234375 128.847656 251.523438 128.644531 251.820312 128.460938 C 252.117188 128.273438 252.417969 128.105469 252.726562 127.945312 C 253.035156 127.785156 253.347656 127.636719 253.664062 127.496094 C 253.976562 127.355469 254.296875 127.226562 254.617188 127.101562 C 254.941406 126.980469 255.265625 126.863281 255.59375 126.753906 C 255.921875 126.648438 256.253906 126.550781 256.589844 126.464844 C 256.929688 126.378906 257.269531 126.308594 257.609375 126.25 C 257.953125 126.191406 258.296875 126.144531 258.644531 126.113281 C 258.988281 126.078125 259.339844 126.0625 259.6875 126.0625 C 260.035156 126.066406 260.386719 126.085938 260.738281 126.128906 C 261.085938 126.171875 261.4375 126.238281 261.777344 126.339844 C 261.949219 126.390625 262.117188 126.449219 262.285156 126.515625 C 262.449219 126.582031 262.613281 126.660156 262.773438 126.75 C 262.929688 126.835938 263.085938 126.933594 263.230469 127.042969 L 263.285156 127.085938 C 263.300781 127.097656 263.320312 127.113281 263.335938 127.125 C 263.371094 127.15625 263.40625 127.183594 263.441406 127.210938 C 263.507812 127.265625 263.574219 127.324219 263.640625 127.382812 C 264.167969 127.855469 264.621094 128.398438 264.996094 128.992188 C 265.375 129.585938 265.671875 130.222656 265.90625 130.878906 C 266.136719 131.539062 266.300781 132.214844 266.410156 132.902344 C 266.519531 133.585938 266.574219 134.277344 266.578125 134.96875 C 266.585938 135.660156 266.542969 136.351562 266.457031 137.039062 C 266.367188 137.722656 266.238281 138.402344 266.054688 139.070312 C 265.964844 139.402344 265.863281 139.730469 265.746094 140.058594 C 265.628906 140.382812 265.496094 140.703125 265.347656 141.019531 C 265.199219 141.332031 265.035156 141.640625 264.847656 141.933594 C 264.660156 142.230469 264.453125 142.511719 264.214844 142.773438 C 264.097656 142.902344 263.96875 143.027344 263.832031 143.140625 C 263.695312 143.257812 263.550781 143.363281 263.394531 143.453125 C 263.238281 143.546875 263.074219 143.621094 262.898438 143.679688 C 262.8125 143.707031 262.722656 143.726562 262.632812 143.746094 C 262.621094 143.746094 262.609375 143.75 262.597656 143.75 L 262.566406 143.753906 L 262.5 143.765625 C 262.457031 143.773438 262.414062 143.777344 262.371094 143.785156 C 262.023438 143.828125 261.671875 143.839844 261.324219 143.824219 C 260.976562 143.808594 260.632812 143.761719 260.292969 143.691406 C 259.949219 143.621094 259.617188 143.527344 259.289062 143.417969 C 258.960938 143.304688 258.644531 143.175781 258.332031 143.03125 C 257.703125 142.738281 257.109375 142.394531 256.535156 142.015625 C 255.964844 141.636719 255.417969 141.226562 254.890625 140.789062 C 253.835938 139.917969 252.855469 138.957031 251.933594 137.957031 C 251.46875 137.453125 251.019531 136.941406 250.578125 136.421875 C 250.359375 136.160156 250.140625 135.898438 249.925781 135.632812 L 249.597656 135.242188 C 249.542969 135.175781 249.488281 135.109375 249.433594 135.046875 C 249.378906 134.984375 249.324219 134.917969 249.261719 134.859375 L 249.296875 134.824219 C 249.359375 134.886719 249.417969 134.949219 249.472656 135.011719 C 249.53125 135.074219 249.589844 135.140625 249.644531 135.203125 C 249.757812 135.332031 249.867188 135.460938 249.976562 135.589844 C 250.199219 135.847656 250.421875 136.105469 250.648438 136.363281 C 251.097656 136.875 251.554688 137.378906 252.023438 137.871094 C 252.964844 138.851562 253.953125 139.792969 255.011719 140.640625 C 255.539062 141.066406 256.089844 141.464844 256.65625 141.832031 C 257.226562 142.195312 257.816406 142.527344 258.433594 142.800781 C 258.742188 142.9375 259.054688 143.0625 259.375 143.167969 C 259.691406 143.269531 260.015625 143.359375 260.34375 143.421875 C 260.671875 143.484375 261.003906 143.523438 261.335938 143.535156 C 261.671875 143.550781 262.003906 143.53125 262.332031 143.488281 C 262.371094 143.480469 262.414062 143.476562 262.453125 143.46875 L 262.515625 143.457031 L 262.546875 143.453125 C 262.554688 143.449219 262.566406 143.449219 262.574219 143.445312 C 262.652344 143.433594 262.730469 143.410156 262.804688 143.386719 C 262.953125 143.335938 263.097656 143.265625 263.234375 143.183594 C 263.371094 143.097656 263.5 143.003906 263.621094 142.894531 C 263.742188 142.789062 263.859375 142.671875 263.96875 142.550781 C 264.1875 142.304688 264.378906 142.035156 264.554688 141.75 C 264.726562 141.46875 264.878906 141.171875 265.019531 140.867188 C 265.292969 140.257812 265.507812 139.617188 265.675781 138.96875 C 265.84375 138.316406 265.964844 137.65625 266.042969 136.988281 C 266.121094 136.320312 266.152344 135.648438 266.140625 134.976562 C 266.128906 134.304688 266.070312 133.636719 265.957031 132.976562 C 265.847656 132.316406 265.683594 131.664062 265.457031 131.039062 C 265.230469 130.414062 264.945312 129.8125 264.585938 129.257812 C 264.230469 128.699219 263.800781 128.191406 263.308594 127.757812 C 263.246094 127.703125 263.183594 127.648438 263.121094 127.597656 C 263.089844 127.570312 263.058594 127.542969 263.023438 127.519531 C 263.007812 127.507812 262.992188 127.496094 262.976562 127.484375 L 262.929688 127.445312 C 262.804688 127.351562 262.667969 127.265625 262.527344 127.1875 C 262.390625 127.113281 262.242188 127.042969 262.09375 126.984375 C 261.945312 126.921875 261.792969 126.871094 261.636719 126.824219 C 261.324219 126.734375 261.003906 126.671875 260.675781 126.632812 C 260.347656 126.589844 260.019531 126.574219 259.6875 126.574219 C 259.023438 126.574219 258.355469 126.640625 257.699219 126.753906 C 257.367188 126.808594 257.039062 126.878906 256.71875 126.960938 C 256.394531 127.042969 256.074219 127.140625 255.753906 127.242188 C 255.113281 127.453125 254.484375 127.691406 253.867188 127.964844 C 253.5625 128.097656 253.257812 128.242188 252.960938 128.394531 C 252.660156 128.546875 252.371094 128.710938 252.085938 128.886719 C 251.804688 129.0625 251.53125 129.25 251.285156 129.457031 C 251.160156 129.5625 251.042969 129.671875 250.933594 129.785156 C 250.828125 129.902344 250.730469 130.023438 250.65625 130.148438 C 250.582031 130.273438 250.53125 130.40625 250.519531 130.527344 C 250.503906 130.652344 250.527344 130.769531 250.585938 130.886719 C 250.617188 130.941406 250.652344 131 250.699219 131.054688 L 250.714844 131.074219 C 250.71875 131.078125 250.726562 131.085938 250.730469 131.089844 C 250.734375 131.097656 250.742188 131.101562 250.746094 131.105469 L 250.761719 131.125 C 250.785156 131.144531 250.808594 131.164062 250.832031 131.179688 C 250.882812 131.210938 250.9375 131.238281 250.996094 131.253906 C 251.054688 131.269531 251.121094 131.28125 251.1875 131.28125 C 251.324219 131.285156 251.472656 131.257812 251.617188 131.214844 C 251.765625 131.171875 251.914062 131.113281 252.058594 131.046875 C 252.351562 130.90625 252.632812 130.734375 252.90625 130.546875 C 253.183594 130.359375 253.449219 130.15625 253.710938 129.945312 C 253.972656 129.734375 254.226562 129.515625 254.476562 129.289062 C 254.980469 128.835938 255.464844 128.363281 255.9375 127.882812 C 256.414062 127.398438 256.875 126.902344 257.332031 126.398438 C 257.785156 125.894531 258.230469 125.378906 258.667969 124.859375 C 258.886719 124.601562 259.105469 124.339844 259.316406 124.078125 C 259.53125 123.8125 259.742188 123.546875 259.949219 123.28125 C 260 123.214844 260.050781 123.144531 260.097656 123.078125 C 260.148438 123.011719 260.195312 122.949219 260.238281 122.878906 C 260.324219 122.746094 260.398438 122.601562 260.464844 122.453125 C 260.597656 122.15625 260.695312 121.84375 260.765625 121.519531 C 260.839844 121.195312 260.886719 120.867188 260.914062 120.535156 C 260.941406 120.199219 260.953125 119.867188 260.953125 119.527344 C 260.949219 118.855469 260.894531 118.183594 260.808594 117.511719 C 260.722656 116.839844 260.609375 116.171875 260.472656 115.507812 C 260.332031 114.84375 260.171875 114.183594 259.996094 113.527344 C 259.816406 112.871094 259.621094 112.222656 259.410156 111.574219 C 259.304688 111.253906 259.191406 110.929688 259.078125 110.609375 C 258.964844 110.289062 258.847656 109.972656 258.726562 109.65625 C 258.480469 109.019531 258.21875 108.390625 257.941406 107.773438 C 257.800781 107.464844 257.65625 107.15625 257.503906 106.851562 C 257.351562 106.546875 257.195312 106.246094 257.03125 105.949219 C 256.863281 105.65625 256.691406 105.363281 256.503906 105.082031 C 256.40625 104.941406 256.308594 104.804688 256.207031 104.671875 C 256.15625 104.605469 256.101562 104.542969 256.046875 104.476562 C 255.992188 104.414062 255.933594 104.355469 255.875 104.296875 C 255.863281 104.285156 255.847656 104.269531 255.832031 104.257812 C 255.816406 104.246094 255.800781 104.230469 255.78125 104.21875 C 255.75 104.191406 255.71875 104.167969 255.683594 104.140625 C 255.617188 104.09375 255.546875 104.042969 255.476562 104 C 255.335938 103.910156 255.191406 103.832031 255.039062 103.765625 C 254.886719 103.699219 254.726562 103.648438 254.566406 103.613281 C 254.402344 103.578125 254.238281 103.5625 254.070312 103.558594 C 253.742188 103.550781 253.410156 103.613281 253.09375 103.71875 C 252.777344 103.824219 252.472656 103.976562 252.1875 104.152344 C 251.898438 104.328125 251.628906 104.527344 251.367188 104.742188 C 251.109375 104.960938 250.859375 105.191406 250.621094 105.429688 C 250.382812 105.671875 250.15625 105.921875 249.933594 106.175781 C 249.820312 106.304688 249.710938 106.433594 249.601562 106.566406 C 249.550781 106.632812 249.496094 106.695312 249.441406 106.761719 C 249.386719 106.828125 249.335938 106.894531 249.285156 106.960938 C 249.183594 107.09375 249.085938 107.234375 248.996094 107.375 C 248.902344 107.515625 248.8125 107.660156 248.726562 107.804688 C 248.550781 108.09375 248.386719 108.390625 248.230469 108.691406 C 247.914062 109.292969 247.628906 109.90625 247.359375 110.53125 C 247.089844 111.15625 246.84375 111.789062 246.609375 112.425781 C 246.144531 113.703125 245.746094 115 245.414062 116.316406 C 245.246094 116.976562 245.097656 117.636719 244.96875 118.304688 C 244.835938 118.96875 244.726562 119.636719 244.636719 120.308594 C 244.542969 120.980469 244.472656 121.65625 244.429688 122.328125 C 244.382812 123.003906 244.359375 123.679688 244.367188 124.355469 C 244.375 125.03125 244.410156 125.707031 244.480469 126.378906 C 244.550781 127.046875 244.652344 127.714844 244.800781 128.371094 C 244.945312 129.027344 245.128906 129.671875 245.363281 130.300781 C 245.597656 130.929688 245.878906 131.539062 246.210938 132.121094 C 246.375 132.410156 246.554688 132.695312 246.746094 132.96875 L 246.820312 133.070312 C 246.84375 133.105469 246.867188 133.140625 246.894531 133.171875 L 246.96875 133.273438 C 246.992188 133.304688 247.015625 133.339844 247.042969 133.371094 L 247.121094 133.472656 L 247.160156 133.519531 L 247.195312 133.566406 C 247.222656 133.597656 247.25 133.628906 247.277344 133.660156 C 247.304688 133.691406 247.328125 133.722656 247.355469 133.753906 C 247.578125 133.996094 247.824219 134.226562 248.074219 134.457031 C 248.320312 134.691406 248.574219 134.925781 248.8125 135.179688 C 248.933594 135.308594 249.050781 135.441406 249.160156 135.585938 L 249.199219 135.636719 L 249.238281 135.691406 C 249.265625 135.730469 249.292969 135.765625 249.316406 135.804688 C 249.328125 135.824219 249.339844 135.839844 249.355469 135.859375 C 249.367188 135.878906 249.378906 135.898438 249.390625 135.917969 L 249.425781 135.980469 C 249.433594 135.988281 249.4375 136 249.441406 136.011719 L 249.460938 136.039062 L 249.492188 136.101562 L 249.519531 136.164062 C 249.539062 136.203125 249.558594 136.242188 249.574219 136.285156 C 249.59375 136.324219 249.609375 136.367188 249.628906 136.40625 C 249.644531 136.449219 249.660156 136.492188 249.675781 136.535156 C 249.738281 136.703125 249.789062 136.871094 249.832031 137.046875 C 249.914062 137.394531 249.953125 137.742188 249.984375 138.085938 C 250.015625 138.429688 250.039062 138.765625 250.074219 139.101562 L 250.085938 139.226562 C 250.089844 139.269531 250.097656 139.308594 250.101562 139.347656 C 250.113281 139.429688 250.125 139.511719 250.140625 139.59375 C 250.167969 139.753906 250.203125 139.917969 250.246094 140.078125 C 250.328125 140.398438 250.429688 140.714844 250.554688 141.023438 C 250.675781 141.332031 250.820312 141.628906 250.992188 141.90625 C 251.082031 142.042969 251.175781 142.175781 251.277344 142.296875 C 251.378906 142.417969 251.492188 142.527344 251.613281 142.617188 L 251.601562 142.609375 C 251.871094 142.773438 252.203125 142.84375 252.523438 142.816406 C 252.679688 142.804688 252.835938 142.761719 252.96875 142.691406 C 253.035156 142.65625 253.09375 142.617188 253.140625 142.566406 C 253.191406 142.515625 253.230469 142.460938 253.257812 142.398438 C 253.3125 142.277344 253.320312 142.128906 253.285156 141.980469 C 253.28125 141.960938 253.277344 141.941406 253.273438 141.925781 C 253.269531 141.914062 253.269531 141.90625 253.265625 141.894531 L 253.257812 141.867188 L 253.253906 141.855469 L 253.246094 141.839844 L 253.234375 141.808594 L 253.214844 141.746094 C 253.183594 141.664062 253.152344 141.582031 253.121094 141.5 C 252.992188 141.171875 252.835938 140.855469 252.660156 140.550781 C 252.3125 139.9375 251.875 139.378906 251.375 138.875 C 250.878906 138.371094 250.324219 137.921875 249.738281 137.515625 C 249.445312 137.3125 249.144531 137.121094 248.839844 136.9375 C 248.6875 136.847656 248.53125 136.757812 248.375 136.667969 C 248.296875 136.625 248.21875 136.582031 248.140625 136.539062 L 248.082031 136.503906 L 248.058594 136.492188 L 248.050781 136.484375 L 248.019531 136.46875 C 247.980469 136.445312 247.941406 136.417969 247.902344 136.394531 C 247.597656 136.199219 247.296875 135.996094 247.003906 135.785156 C 246.707031 135.574219 246.421875 135.355469 246.140625 135.128906 C 245.855469 134.898438 245.582031 134.660156 245.320312 134.410156 C 245.191406 134.28125 245.0625 134.152344 244.941406 134.015625 C 244.820312 133.878906 244.703125 133.738281 244.59375 133.589844 C 244.539062 133.515625 244.488281 133.441406 244.4375 133.363281 C 244.386719 133.285156 244.34375 133.203125 244.300781 133.121094 C 244.261719 133.035156 244.222656 132.949219 244.195312 132.859375 C 244.179688 132.8125 244.167969 132.765625 244.15625 132.71875 C 244.144531 132.671875 244.136719 132.625 244.132812 132.578125 C 244.121094 132.480469 244.125 132.382812 244.144531 132.285156 C 244.152344 132.234375 244.164062 132.1875 244.183594 132.140625 C 244.199219 132.09375 244.222656 132.050781 244.246094 132.007812 C 244.269531 131.964844 244.300781 131.921875 244.328125 131.886719 C 244.359375 131.847656 244.394531 131.8125 244.429688 131.78125 C 244.445312 131.761719 244.464844 131.746094 244.480469 131.730469 C 244.5 131.714844 244.519531 131.699219 244.539062 131.6875 C 244.574219 131.65625 244.613281 131.632812 244.65625 131.605469 Z M 244.734375 131.734375 "/></g><path style=" stroke:none;fill-rule:nonzero;fill:#ffffff;fill-opacity:1;" d="M 236.894531 121.386719 C 237.027344 121.34375 237.171875 121.328125 237.3125 121.34375 C 237.453125 121.355469 237.59375 121.398438 237.726562 121.457031 C 237.792969 121.484375 237.855469 121.515625 237.917969 121.554688 C 237.980469 121.589844 238.039062 121.628906 238.101562 121.667969 C 238.214844 121.753906 238.328125 121.84375 238.429688 121.941406 C 238.640625 122.132812 238.828125 122.34375 239.007812 122.566406 C 239.09375 122.675781 239.179688 122.785156 239.261719 122.902344 C 239.347656 123.015625 239.425781 123.128906 239.503906 123.246094 C 239.585938 123.359375 239.660156 123.476562 239.738281 123.597656 C 239.8125 123.714844 239.886719 123.832031 239.957031 123.953125 C 240.105469 124.191406 240.242188 124.433594 240.382812 124.675781 C 240.449219 124.796875 240.519531 124.917969 240.585938 125.039062 L 240.785156 125.40625 C 240.917969 125.648438 241.046875 125.894531 241.175781 126.140625 L 241.5625 126.875 C 241.6875 127.121094 241.816406 127.367188 241.945312 127.609375 C 242.074219 127.855469 242.207031 128.097656 242.335938 128.339844 C 242.402344 128.460938 242.46875 128.582031 242.535156 128.699219 C 242.601562 128.820312 242.667969 128.941406 242.738281 129.0625 C 243.011719 129.539062 243.296875 130.007812 243.609375 130.453125 C 243.921875 130.902344 244.261719 131.332031 244.671875 131.695312 L 244.597656 131.792969 C 244.359375 131.640625 244.140625 131.457031 243.9375 131.265625 C 243.730469 131.070312 243.542969 130.859375 243.359375 130.644531 C 243 130.210938 242.679688 129.75 242.378906 129.277344 C 242.304688 129.160156 242.230469 129.039062 242.160156 128.921875 C 242.085938 128.800781 242.015625 128.679688 241.945312 128.5625 C 241.804688 128.320312 241.667969 128.078125 241.53125 127.832031 C 241.398438 127.589844 241.269531 127.34375 241.136719 127.097656 C 241.007812 126.851562 240.882812 126.605469 240.753906 126.359375 L 240.375 125.621094 L 240.1875 125.253906 L 239.996094 124.882812 C 239.867188 124.640625 239.738281 124.394531 239.609375 124.152344 C 239.542969 124.03125 239.476562 123.914062 239.410156 123.792969 C 239.34375 123.671875 239.273438 123.554688 239.207031 123.4375 C 239.136719 123.316406 239.066406 123.199219 238.992188 123.085938 C 238.921875 122.96875 238.847656 122.855469 238.769531 122.742188 C 238.695312 122.628906 238.613281 122.515625 238.53125 122.410156 C 238.449219 122.300781 238.367188 122.195312 238.277344 122.09375 C 238.1875 121.992188 238.09375 121.894531 237.992188 121.804688 C 237.941406 121.761719 237.890625 121.71875 237.835938 121.679688 C 237.785156 121.636719 237.726562 121.601562 237.671875 121.566406 C 237.613281 121.53125 237.554688 121.5 237.492188 121.472656 C 237.429688 121.445312 237.367188 121.425781 237.300781 121.410156 C 237.171875 121.375 237.03125 121.367188 236.894531 121.386719 Z M 236.894531 121.386719 "/><g clip-rule="nonzero" clip-path="url(#f1584bacba)"><path style=" stroke:none;fill-rule:nonzero;fill:#ffffff;fill-opacity:1;" d="M 234.144531 124.039062 C 234.257812 123.964844 234.394531 123.910156 234.535156 123.886719 C 234.675781 123.859375 234.820312 123.863281 234.964844 123.882812 C 235.035156 123.894531 235.105469 123.90625 235.175781 123.925781 C 235.242188 123.945312 235.3125 123.964844 235.378906 123.988281 C 235.515625 124.035156 235.644531 124.09375 235.773438 124.160156 C 236.027344 124.289062 236.265625 124.441406 236.496094 124.605469 C 236.609375 124.6875 236.722656 124.773438 236.832031 124.859375 C 236.941406 124.949219 237.050781 125.035156 237.160156 125.125 C 237.265625 125.21875 237.371094 125.308594 237.476562 125.402344 C 237.582031 125.496094 237.683594 125.589844 237.785156 125.6875 C 237.988281 125.875 238.1875 126.070312 238.386719 126.265625 C 238.484375 126.363281 238.582031 126.464844 238.679688 126.5625 L 238.972656 126.863281 C 239.164062 127.0625 239.355469 127.261719 239.546875 127.464844 L 240.117188 128.066406 C 240.308594 128.269531 240.496094 128.46875 240.6875 128.671875 C 240.875 128.871094 241.066406 129.070312 241.257812 129.269531 C 241.355469 129.367188 241.453125 129.464844 241.546875 129.5625 C 241.644531 129.660156 241.742188 129.757812 241.839844 129.851562 C 242.230469 130.238281 242.632812 130.613281 243.054688 130.960938 C 243.476562 131.304688 243.921875 131.625 244.414062 131.867188 L 244.363281 131.988281 C 244.09375 131.90625 243.832031 131.789062 243.585938 131.65625 C 243.335938 131.523438 243.09375 131.375 242.863281 131.214844 C 242.402344 130.894531 241.96875 130.535156 241.550781 130.160156 C 241.445312 130.066406 241.34375 129.972656 241.242188 129.878906 C 241.140625 129.78125 241.039062 129.683594 240.9375 129.589844 C 240.738281 129.394531 240.542969 129.195312 240.347656 129 C 240.152344 128.800781 239.960938 128.597656 239.769531 128.398438 C 239.578125 128.195312 239.390625 127.992188 239.199219 127.789062 L 238.074219 126.570312 C 237.882812 126.371094 237.695312 126.171875 237.503906 125.972656 C 237.40625 125.875 237.3125 125.777344 237.214844 125.679688 C 237.117188 125.582031 237.019531 125.484375 236.921875 125.390625 C 236.820312 125.296875 236.722656 125.199219 236.621094 125.109375 C 236.519531 125.015625 236.417969 124.925781 236.3125 124.839844 C 236.210938 124.75 236.105469 124.664062 235.996094 124.582031 C 235.886719 124.5 235.777344 124.421875 235.664062 124.347656 C 235.550781 124.273438 235.433594 124.207031 235.3125 124.148438 C 235.253906 124.117188 235.191406 124.089844 235.128906 124.066406 C 235.066406 124.042969 235.003906 124.019531 234.9375 124.003906 C 234.875 123.984375 234.808594 123.972656 234.742188 123.960938 C 234.675781 123.953125 234.609375 123.949219 234.539062 123.953125 C 234.40625 123.957031 234.269531 123.984375 234.144531 124.039062 Z M 234.144531 124.039062 "/></g><g style="fill:#ffffff;fill-opacity:1;"><g transform="translate(114.946389, 165.569368)"><path style="stroke:none" d="M 95.203125 14.015625 C 95.546875 14.015625 95.890625 14.015625 96.234375 14.015625 L 96.234375 14.890625 C 94.617188 15.117188 92.816406 15.234375 90.828125 15.234375 C 88.835938 15.234375 86.382812 14.800781 83.46875 13.9375 C 80.5625 13.070312 77.925781 11.457031 75.5625 9.09375 C 70.707031 4.238281 67.765625 -2.050781 66.734375 -9.78125 L 61.453125 -48.296875 L 43.453125 -7.609375 C 41.828125 -4.097656 40.84375 -1.15625 40.5 1.21875 L 39.640625 1.21875 L 17.21875 -47.515625 L 13.421875 -4.5 C 13.296875 -3.519531 13.59375 -2.65625 14.3125 -1.90625 C 15.039062 -1.15625 15.835938 -0.78125 16.703125 -0.78125 L 18.09375 -0.78125 L 18.09375 0 L 1.296875 0 L 1.296875 -0.859375 L 2.6875 -0.859375 C 4.238281 -0.859375 5.601562 -1.332031 6.78125 -2.28125 C 7.96875 -3.238281 8.707031 -4.5 9 -6.0625 L 14.453125 -53.3125 C 9.378906 -63.289062 3.289062 -68.28125 -3.8125 -68.28125 C -4.445312 -68.28125 -5.109375 -68.253906 -5.796875 -68.203125 L -5.796875 -69.0625 C -4.242188 -69.46875 -2.972656 -69.671875 -1.984375 -69.671875 C -1.003906 -69.671875 0.0546875 -69.625 1.203125 -69.53125 C 2.359375 -69.445312 3.710938 -69.175781 5.265625 -68.71875 C 6.828125 -68.257812 8.300781 -67.582031 9.6875 -66.6875 C 11.070312 -65.789062 12.285156 -64.863281 13.328125 -63.90625 C 14.367188 -62.957031 15.347656 -61.90625 16.265625 -60.75 C 17.828125 -58.675781 19.070312 -56.6875 20 -54.78125 L 40.84375 -9.609375 L 64.125 -61.796875 L 64.90625 -61.796875 L 72.953125 -10.5625 C 74.171875 -2.476562 76.785156 3.632812 80.796875 7.78125 C 84.804688 11.9375 89.609375 14.015625 95.203125 14.015625 Z M 95.203125 14.015625 "/></g></g><g style="fill:#ffffff;fill-opacity:1;"><g transform="translate(82.75701, 239.621615)"><path style="stroke:none" d="M 12.265625 1.8125 C 12.316406 1.8125 12.363281 1.8125 12.40625 1.8125 L 12.40625 1.921875 C 12.195312 1.953125 11.960938 1.96875 11.703125 1.96875 C 11.453125 1.96875 11.140625 1.910156 10.765625 1.796875 C 10.390625 1.679688 10.046875 1.472656 9.734375 1.171875 C 9.109375 0.546875 8.726562 -0.265625 8.59375 -1.265625 L 7.921875 -6.21875 L 5.59375 -0.984375 C 5.382812 -0.523438 5.257812 -0.144531 5.21875 0.15625 L 5.109375 0.15625 L 2.21875 -6.125 L 1.734375 -0.578125 C 1.710938 -0.453125 1.75 -0.335938 1.84375 -0.234375 C 1.9375 -0.140625 2.039062 -0.09375 2.15625 -0.09375 L 2.328125 -0.09375 L 2.328125 0 L 0.171875 0 L 0.171875 -0.109375 L 0.34375 -0.109375 C 0.539062 -0.109375 0.71875 -0.171875 0.875 -0.296875 C 1.03125 -0.421875 1.125 -0.582031 1.15625 -0.78125 L 1.859375 -6.875 C 1.203125 -8.15625 0.421875 -8.796875 -0.484375 -8.796875 C -0.566406 -8.796875 -0.65625 -8.796875 -0.75 -8.796875 L -0.75 -8.90625 C -0.550781 -8.957031 -0.382812 -8.984375 -0.25 -8.984375 C -0.125 -8.984375 0.0078125 -8.976562 0.15625 -8.96875 C 0.300781 -8.957031 0.472656 -8.921875 0.671875 -8.859375 C 0.878906 -8.796875 1.070312 -8.707031 1.25 -8.59375 C 1.425781 -8.476562 1.582031 -8.359375 1.71875 -8.234375 C 1.851562 -8.117188 1.976562 -7.984375 2.09375 -7.828125 C 2.300781 -7.566406 2.460938 -7.3125 2.578125 -7.0625 L 5.265625 -1.234375 L 8.265625 -7.96875 L 8.375 -7.96875 L 9.40625 -1.359375 C 9.5625 -0.316406 9.894531 0.46875 10.40625 1 C 10.925781 1.539062 11.546875 1.8125 12.265625 1.8125 Z M 12.265625 1.8125 "/></g></g><g style="fill:#ffffff;fill-opacity:1;"><g transform="translate(101.089941, 239.621615)"><path style="stroke:none" d="M 1.328125 -8.1875 C 1.816406 -8.382812 2.285156 -8.484375 2.734375 -8.484375 C 3.097656 -8.484375 3.476562 -8.347656 3.875 -8.078125 C 4.09375 -7.929688 4.332031 -7.640625 4.59375 -7.203125 C 4.78125 -6.910156 5.007812 -6.375 5.28125 -5.59375 L 6.640625 -1.734375 C 6.953125 -0.867188 7.269531 -0.179688 7.59375 0.328125 C 7.914062 0.835938 8.210938 1.21875 8.484375 1.46875 C 8.753906 1.726562 9.03125 1.910156 9.3125 2.015625 C 9.601562 2.117188 9.84375 2.171875 10.03125 2.171875 C 10.226562 2.171875 10.398438 2.15625 10.546875 2.125 L 10.5625 2.25 C 10.195312 2.363281 9.84375 2.421875 9.5 2.421875 C 9.164062 2.421875 8.828125 2.332031 8.484375 2.15625 C 8.140625 1.976562 7.820312 1.734375 7.53125 1.421875 C 6.882812 0.773438 6.335938 -0.207031 5.890625 -1.53125 L 5.453125 -2.796875 L 2.40625 -2.796875 L 1.640625 -0.8125 C 1.597656 -0.726562 1.578125 -0.640625 1.578125 -0.546875 C 1.578125 -0.453125 1.613281 -0.351562 1.6875 -0.25 C 1.769531 -0.15625 1.894531 -0.109375 2.0625 -0.109375 L 2.140625 -0.109375 L 2.140625 0 L -0.09375 0 L -0.09375 -0.109375 L 0 -0.109375 C 0.175781 -0.109375 0.347656 -0.160156 0.515625 -0.265625 C 0.691406 -0.378906 0.835938 -0.546875 0.953125 -0.765625 L 3.71875 -7.390625 C 3.3125 -7.960938 2.8125 -8.25 2.21875 -8.25 C 1.957031 -8.25 1.671875 -8.191406 1.359375 -8.078125 Z M 2.53125 -3.140625 L 5.34375 -3.140625 L 4.46875 -5.734375 C 4.289062 -6.234375 4.132812 -6.625 4 -6.90625 Z M 2.53125 -3.140625 "/></g></g><g style="fill:#ffffff;fill-opacity:1;"><g transform="translate(116.979661, 239.621615)"><path style="stroke:none" d="M -0.453125 -8.453125 C -0.398438 -8.453125 -0.304688 -8.453125 -0.171875 -8.453125 C -0.0351562 -8.453125 0.144531 -8.425781 0.375 -8.375 C 0.601562 -8.332031 0.816406 -8.269531 1.015625 -8.1875 C 1.210938 -8.101562 1.40625 -7.976562 1.59375 -7.8125 C 1.789062 -7.65625 1.953125 -7.503906 2.078125 -7.359375 C 2.210938 -7.222656 2.347656 -7.046875 2.484375 -6.828125 C 2.628906 -6.609375 2.742188 -6.421875 2.828125 -6.265625 C 2.910156 -6.109375 3.003906 -5.898438 3.109375 -5.640625 C 3.242188 -5.328125 3.351562 -5.050781 3.4375 -4.8125 C 3.519531 -4.582031 3.5625 -4.453125 3.5625 -4.421875 C 3.570312 -4.398438 3.585938 -4.375 3.609375 -4.34375 C 3.628906 -4.289062 3.644531 -4.238281 3.65625 -4.1875 C 3.675781 -4.238281 3.726562 -4.375 3.8125 -4.59375 C 3.894531 -4.820312 3.972656 -5.023438 4.046875 -5.203125 C 4.117188 -5.390625 4.226562 -5.644531 4.375 -5.96875 C 4.519531 -6.289062 4.65625 -6.546875 4.78125 -6.734375 C 4.90625 -6.929688 5.0625 -7.148438 5.25 -7.390625 C 5.445312 -7.640625 5.640625 -7.832031 5.828125 -7.96875 C 6.304688 -8.289062 6.816406 -8.453125 7.359375 -8.453125 L 7.359375 -8.328125 C 6.941406 -8.328125 6.515625 -8.109375 6.078125 -7.671875 C 5.640625 -7.234375 5.265625 -6.703125 4.953125 -6.078125 C 4.648438 -5.460938 4.398438 -4.820312 4.203125 -4.15625 C 4.003906 -3.488281 3.90625 -2.921875 3.90625 -2.453125 L 3.90625 -0.8125 C 3.90625 -0.539062 4.019531 -0.34375 4.25 -0.21875 C 4.363281 -0.144531 4.488281 -0.109375 4.625 -0.109375 L 4.75 -0.109375 L 4.75 0 L 2.328125 0 L 2.328125 -0.109375 L 2.46875 -0.109375 C 2.65625 -0.109375 2.816406 -0.175781 2.953125 -0.3125 C 3.097656 -0.445312 3.171875 -0.609375 3.171875 -0.796875 L 3.171875 -2.46875 C 3.171875 -2.96875 3.066406 -3.550781 2.859375 -4.21875 C 2.660156 -4.882812 2.394531 -5.523438 2.0625 -6.140625 C 1.738281 -6.753906 1.347656 -7.269531 0.890625 -7.6875 C 0.441406 -8.113281 -0.00390625 -8.328125 -0.453125 -8.328125 Z M -0.453125 -8.453125 "/></g></g><g style="fill:#ffffff;fill-opacity:1;"><g transform="translate(131.82069, 239.621615)"><path style="stroke:none" d="M 4.421875 -4.859375 C 4.285156 -4.722656 4.132812 -4.617188 3.96875 -4.546875 C 4.695312 -4.441406 5.25 -4.179688 5.625 -3.765625 C 6.007812 -3.359375 6.203125 -2.859375 6.203125 -2.265625 C 6.203125 -1.546875 5.910156 -0.960938 5.328125 -0.515625 C 4.742188 -0.0664062 3.976562 0.15625 3.03125 0.15625 C 2.09375 0.15625 1.351562 -0.0703125 0.8125 -0.53125 C 0.28125 -1 0.015625 -1.660156 0.015625 -2.515625 C 0.015625 -2.554688 0.015625 -2.597656 0.015625 -2.640625 L 0.140625 -2.671875 C 0.285156 -1.554688 0.742188 -0.835938 1.515625 -0.515625 L 1.515625 -7 C 1.503906 -7.207031 1.429688 -7.375 1.296875 -7.5 C 1.160156 -7.632812 0.992188 -7.703125 0.796875 -7.703125 L 0.65625 -7.703125 L 0.65625 -7.8125 L 2.53125 -7.8125 C 3.226562 -7.8125 3.785156 -7.648438 4.203125 -7.328125 C 4.628906 -7.003906 4.84375 -6.582031 4.84375 -6.0625 C 4.84375 -5.550781 4.703125 -5.148438 4.421875 -4.859375 Z M 2.25 -7.453125 L 2.25 -0.3125 C 2.488281 -0.269531 2.769531 -0.25 3.09375 -0.25 C 3.8125 -0.25 4.367188 -0.441406 4.765625 -0.828125 C 5.160156 -1.210938 5.359375 -1.710938 5.359375 -2.328125 C 5.359375 -2.648438 5.296875 -2.9375 5.171875 -3.1875 C 5.046875 -3.4375 4.894531 -3.632812 4.71875 -3.78125 C 4.21875 -4.15625 3.523438 -4.34375 2.640625 -4.34375 C 2.628906 -4.34375 2.625 -4.34375 2.625 -4.34375 L 2.609375 -4.453125 C 2.617188 -4.453125 2.625 -4.453125 2.625 -4.453125 C 3 -4.453125 3.320312 -4.578125 3.59375 -4.828125 C 3.875 -5.078125 4.015625 -5.460938 4.015625 -5.984375 C 4.015625 -6.960938 3.472656 -7.453125 2.390625 -7.453125 Z M 2.25 -7.453125 "/></g></g><g style="fill:#ffffff;fill-opacity:1;"><g transform="translate(146.393973, 239.621615)"><path style="stroke:none" d="M 0.8125 -0.109375 C 1.007812 -0.109375 1.175781 -0.175781 1.3125 -0.3125 C 1.445312 -0.457031 1.519531 -0.625 1.53125 -0.8125 L 1.53125 -7.0625 C 1.53125 -7.238281 1.457031 -7.390625 1.3125 -7.515625 C 1.175781 -7.640625 1.007812 -7.703125 0.8125 -7.703125 L 0.6875 -7.703125 L 0.671875 -7.8125 L 2.9375 -7.8125 C 3.164062 -7.8125 3.414062 -7.832031 3.6875 -7.875 C 3.957031 -7.914062 4.148438 -7.960938 4.265625 -8.015625 L 4.265625 -6.609375 L 4.15625 -6.609375 L 4.15625 -6.8125 C 4.15625 -6.988281 4.09375 -7.140625 3.96875 -7.265625 C 3.84375 -7.390625 3.695312 -7.457031 3.53125 -7.46875 L 2.25 -7.46875 L 2.25 -4.015625 L 4.375 -4.015625 C 4.519531 -4.023438 4.644531 -4.082031 4.75 -4.1875 C 4.851562 -4.289062 4.90625 -4.421875 4.90625 -4.578125 L 4.90625 -4.734375 L 5.015625 -4.734375 L 5.015625 -2.96875 L 4.90625 -2.96875 L 4.90625 -3.140625 C 4.90625 -3.285156 4.851562 -3.410156 4.75 -3.515625 C 4.65625 -3.617188 4.535156 -3.675781 4.390625 -3.6875 L 2.25 -3.6875 L 2.25 -0.34375 L 4.625 -0.34375 C 5.175781 -0.34375 5.597656 -0.460938 5.890625 -0.703125 C 6.179688 -0.953125 6.421875 -1.320312 6.609375 -1.8125 L 6.734375 -1.8125 L 6.078125 0 L 0.671875 0 L 0.671875 -0.109375 Z M 0.8125 -0.109375 "/></g></g><g style="fill:#ffffff;fill-opacity:1;"><g transform="translate(161.112287, 239.621615)"><path style="stroke:none" d="M 2.796875 0.21875 C 4.378906 0.757812 5.566406 1.128906 6.359375 1.328125 C 7.148438 1.523438 7.828125 1.625 8.390625 1.625 C 8.960938 1.625 9.59375 1.492188 10.28125 1.234375 L 10.328125 1.328125 C 9.421875 1.953125 8.507812 2.265625 7.59375 2.265625 C 6.644531 2.265625 5.566406 1.972656 4.359375 1.390625 C 3.429688 0.921875 2.859375 0.640625 2.640625 0.546875 C 1.835938 0.191406 1.179688 0.0078125 0.671875 0 L 0.671875 -0.109375 L 0.8125 -0.109375 C 1.007812 -0.109375 1.175781 -0.175781 1.3125 -0.3125 C 1.445312 -0.445312 1.519531 -0.613281 1.53125 -0.8125 L 1.53125 -7 C 1.519531 -7.1875 1.445312 -7.347656 1.3125 -7.484375 C 1.175781 -7.628906 1.007812 -7.703125 0.8125 -7.703125 L 0.671875 -7.703125 L 0.671875 -7.8125 L 3.109375 -7.8125 L 3.109375 -7.703125 L 2.96875 -7.703125 C 2.769531 -7.703125 2.597656 -7.628906 2.453125 -7.484375 C 2.316406 -7.347656 2.25 -7.1875 2.25 -7 L 2.25 -0.5625 C 2.25 -0.425781 2.253906 -0.320312 2.265625 -0.25 C 2.285156 -0.175781 2.335938 -0.09375 2.421875 0 C 2.503906 0.0820312 2.628906 0.15625 2.796875 0.21875 Z M 2.796875 0.21875 "/></g></g><g style="fill:#ffffff;fill-opacity:1;"><g transform="translate(173.532422, 239.621615)"><path style="stroke:none" d="M 2.796875 0.21875 C 4.378906 0.757812 5.566406 1.128906 6.359375 1.328125 C 7.148438 1.523438 7.828125 1.625 8.390625 1.625 C 8.960938 1.625 9.59375 1.492188 10.28125 1.234375 L 10.328125 1.328125 C 9.421875 1.953125 8.507812 2.265625 7.59375 2.265625 C 6.644531 2.265625 5.566406 1.972656 4.359375 1.390625 C 3.429688 0.921875 2.859375 0.640625 2.640625 0.546875 C 1.835938 0.191406 1.179688 0.0078125 0.671875 0 L 0.671875 -0.109375 L 0.8125 -0.109375 C 1.007812 -0.109375 1.175781 -0.175781 1.3125 -0.3125 C 1.445312 -0.445312 1.519531 -0.613281 1.53125 -0.8125 L 1.53125 -7 C 1.519531 -7.1875 1.445312 -7.347656 1.3125 -7.484375 C 1.175781 -7.628906 1.007812 -7.703125 0.8125 -7.703125 L 0.671875 -7.703125 L 0.671875 -7.8125 L 3.109375 -7.8125 L 3.109375 -7.703125 L 2.96875 -7.703125 C 2.769531 -7.703125 2.597656 -7.628906 2.453125 -7.484375 C 2.316406 -7.347656 2.25 -7.1875 2.25 -7 L 2.25 -0.5625 C 2.25 -0.425781 2.253906 -0.320312 2.265625 -0.25 C 2.285156 -0.175781 2.335938 -0.09375 2.421875 0 C 2.503906 0.0820312 2.628906 0.15625 2.796875 0.21875 Z M 2.796875 0.21875 "/></g></g><g style="fill:#ffffff;fill-opacity:1;"><g transform="translate(185.952557, 239.621615)"><path style="stroke:none" d="M 0.8125 -0.109375 C 1.007812 -0.109375 1.175781 -0.175781 1.3125 -0.3125 C 1.445312 -0.457031 1.519531 -0.625 1.53125 -0.8125 L 1.53125 -7.0625 C 1.53125 -7.238281 1.457031 -7.390625 1.3125 -7.515625 C 1.175781 -7.640625 1.007812 -7.703125 0.8125 -7.703125 L 0.6875 -7.703125 L 0.671875 -7.8125 L 2.9375 -7.8125 C 3.164062 -7.8125 3.414062 -7.832031 3.6875 -7.875 C 3.957031 -7.914062 4.148438 -7.960938 4.265625 -8.015625 L 4.265625 -6.609375 L 4.15625 -6.609375 L 4.15625 -6.8125 C 4.15625 -6.988281 4.09375 -7.140625 3.96875 -7.265625 C 3.84375 -7.390625 3.695312 -7.457031 3.53125 -7.46875 L 2.25 -7.46875 L 2.25 -4.015625 L 4.375 -4.015625 C 4.519531 -4.023438 4.644531 -4.082031 4.75 -4.1875 C 4.851562 -4.289062 4.90625 -4.421875 4.90625 -4.578125 L 4.90625 -4.734375 L 5.015625 -4.734375 L 5.015625 -2.96875 L 4.90625 -2.96875 L 4.90625 -3.140625 C 4.90625 -3.285156 4.851562 -3.410156 4.75 -3.515625 C 4.65625 -3.617188 4.535156 -3.675781 4.390625 -3.6875 L 2.25 -3.6875 L 2.25 -0.34375 L 4.625 -0.34375 C 5.175781 -0.34375 5.597656 -0.460938 5.890625 -0.703125 C 6.179688 -0.953125 6.421875 -1.320312 6.609375 -1.8125 L 6.734375 -1.8125 L 6.078125 0 L 0.671875 0 L 0.671875 -0.109375 Z M 0.8125 -0.109375 "/></g></g><g style="fill:#ffffff;fill-opacity:1;"><g transform="translate(200.670871, 239.621615)"><path style="stroke:none" d=""/></g></g><g style="fill:#ffffff;fill-opacity:1;"><g transform="translate(211.406424, 239.621615)"><path style="stroke:none" d="M 8.140625 -0.109375 L 8.265625 -0.109375 L 8.265625 0 L 5.828125 0 L 5.828125 -0.109375 L 5.984375 -0.109375 C 6.171875 -0.109375 6.332031 -0.171875 6.46875 -0.296875 C 6.601562 -0.429688 6.675781 -0.597656 6.6875 -0.796875 L 6.6875 -3.6875 L 2.375 -3.6875 L 2.375 -0.78125 C 2.375 0.257812 2.125 0.957031 1.625 1.3125 C 1.382812 1.476562 1.082031 1.601562 0.71875 1.6875 L 0.671875 1.578125 C 1.003906 1.398438 1.25 1.125 1.40625 0.75 C 1.570312 0.382812 1.65625 -0.125 1.65625 -0.78125 L 1.65625 -7 C 1.65625 -7.195312 1.582031 -7.363281 1.4375 -7.5 C 1.300781 -7.632812 1.132812 -7.703125 0.9375 -7.703125 L 0.796875 -7.703125 L 0.796875 -7.8125 L 3.234375 -7.8125 L 3.234375 -7.703125 L 3.09375 -7.703125 C 2.894531 -7.703125 2.726562 -7.632812 2.59375 -7.5 C 2.457031 -7.363281 2.382812 -7.195312 2.375 -7 L 2.375 -4.03125 L 6.6875 -4.03125 L 6.6875 -6.8125 C 6.695312 -7.757812 6.910156 -8.421875 7.328125 -8.796875 C 7.578125 -9.015625 7.921875 -9.171875 8.359375 -9.265625 L 8.40625 -9.171875 C 8.070312 -8.992188 7.820312 -8.71875 7.65625 -8.34375 C 7.5 -7.96875 7.421875 -7.457031 7.421875 -6.8125 L 7.421875 -0.8125 C 7.421875 -0.625 7.488281 -0.457031 7.625 -0.3125 C 7.757812 -0.175781 7.929688 -0.109375 8.140625 -0.109375 Z M 8.140625 -0.109375 "/></g></g><g style="fill:#ffffff;fill-opacity:1;"><g transform="translate(228.422918, 239.621615)"><path style="stroke:none" d="M 3.09375 -5.203125 C 3.0625 -5.304688 3.046875 -5.390625 3.046875 -5.453125 C 3.046875 -5.523438 3.046875 -5.601562 3.046875 -5.6875 C 3.054688 -5.78125 3.070312 -5.90625 3.09375 -6.0625 C 3.125 -6.21875 3.175781 -6.375 3.25 -6.53125 C 3.332031 -6.6875 3.421875 -6.832031 3.515625 -6.96875 C 3.609375 -7.113281 3.726562 -7.242188 3.875 -7.359375 C 4.03125 -7.484375 4.203125 -7.585938 4.390625 -7.671875 C 4.785156 -7.867188 5.265625 -7.96875 5.828125 -7.96875 C 6.972656 -7.96875 7.898438 -7.585938 8.609375 -6.828125 C 9.328125 -6.078125 9.6875 -5.113281 9.6875 -3.9375 C 9.6875 -2.757812 9.265625 -1.78125 8.421875 -1 C 7.578125 -0.226562 6.503906 0.15625 5.203125 0.15625 C 3.898438 0.15625 2.816406 -0.226562 1.953125 -1 C 1.097656 -1.78125 0.671875 -2.785156 0.671875 -4.015625 C 0.671875 -4.804688 0.851562 -5.507812 1.21875 -6.125 C 1.59375 -6.75 2.128906 -7.238281 2.828125 -7.59375 L 2.890625 -7.484375 C 2.410156 -7.160156 2.0625 -6.695312 1.84375 -6.09375 C 1.632812 -5.5 1.53125 -4.863281 1.53125 -4.1875 C 1.53125 -2.925781 1.867188 -1.941406 2.546875 -1.234375 C 3.234375 -0.523438 4.113281 -0.171875 5.1875 -0.171875 C 6.257812 -0.171875 7.132812 -0.523438 7.8125 -1.234375 C 8.488281 -1.953125 8.828125 -2.890625 8.828125 -4.046875 C 8.828125 -5.054688 8.554688 -5.90625 8.015625 -6.59375 C 7.484375 -7.28125 6.726562 -7.625 5.75 -7.625 C 5.3125 -7.625 4.910156 -7.546875 4.546875 -7.390625 C 3.898438 -7.117188 3.472656 -6.664062 3.265625 -6.03125 C 3.203125 -5.84375 3.171875 -5.679688 3.171875 -5.546875 C 3.171875 -5.421875 3.179688 -5.316406 3.203125 -5.234375 Z M 3.09375 -5.203125 "/></g></g><g style="fill:#ffffff;fill-opacity:1;"><g transform="translate(246.733532, 239.621615)"><path style="stroke:none" d="M 9.890625 -9.734375 C 9.953125 -9.734375 10.015625 -9.734375 10.078125 -9.734375 L 10.078125 -9.609375 C 9.265625 -9.609375 8.617188 -9.335938 8.140625 -8.796875 C 7.671875 -8.265625 7.4375 -7.488281 7.4375 -6.46875 L 7.4375 -2.75 C 7.4375 -1.882812 7.160156 -1.179688 6.609375 -0.640625 C 6.054688 -0.109375 5.320312 0.15625 4.40625 0.15625 C 3.488281 0.15625 2.742188 -0.109375 2.171875 -0.640625 C 1.609375 -1.171875 1.328125 -1.875 1.328125 -2.75 L 1.328125 -7.15625 C 1.328125 -7.363281 1.226562 -7.519531 1.03125 -7.625 C 0.945312 -7.675781 0.847656 -7.703125 0.734375 -7.703125 L 0.5625 -7.703125 L 0.5625 -7.8125 L 2.828125 -7.8125 L 2.828125 -7.703125 L 2.640625 -7.703125 C 2.484375 -7.703125 2.347656 -7.648438 2.234375 -7.546875 C 2.117188 -7.441406 2.054688 -7.3125 2.046875 -7.15625 L 2.046875 -2.90625 C 2.046875 -2.09375 2.265625 -1.4375 2.703125 -0.9375 C 3.140625 -0.445312 3.710938 -0.203125 4.421875 -0.203125 C 5.171875 -0.203125 5.769531 -0.4375 6.21875 -0.90625 C 6.675781 -1.375 6.90625 -1.988281 6.90625 -2.75 L 6.90625 -6.453125 C 6.90625 -7.546875 7.179688 -8.363281 7.734375 -8.90625 C 8.285156 -9.457031 9.003906 -9.734375 9.890625 -9.734375 Z M 9.890625 -9.734375 "/></g></g><g style="fill:#ffffff;fill-opacity:1;"><g transform="translate(263.415343, 239.621615)"><path style="stroke:none" d="M 1.328125 -2.96875 C 0.941406 -2.457031 0.75 -1.910156 0.75 -1.328125 C 0.75 -0.628906 1.039062 -0.0859375 1.625 0.296875 C 1.96875 0.523438 2.359375 0.640625 2.796875 0.640625 C 3.234375 0.640625 3.609375 0.554688 3.921875 0.390625 C 4.523438 0.078125 4.863281 -0.445312 4.9375 -1.1875 C 4.945312 -1.238281 4.953125 -1.289062 4.953125 -1.34375 C 4.953125 -1.613281 4.875 -1.910156 4.71875 -2.234375 C 4.570312 -2.554688 4.328125 -2.847656 3.984375 -3.109375 L 1.96875 -4.703125 C 1.53125 -5.035156 1.3125 -5.472656 1.3125 -6.015625 C 1.3125 -6.566406 1.484375 -7.03125 1.828125 -7.40625 C 2.179688 -7.78125 2.65625 -7.96875 3.25 -7.96875 C 3.550781 -7.96875 3.878906 -7.929688 4.234375 -7.859375 L 4.671875 -7.859375 L 4.703125 -6.484375 L 4.578125 -6.484375 C 4.578125 -6.835938 4.453125 -7.113281 4.203125 -7.3125 C 3.953125 -7.519531 3.640625 -7.625 3.265625 -7.625 C 2.890625 -7.625 2.570312 -7.5 2.3125 -7.25 C 2.0625 -7.007812 1.9375 -6.691406 1.9375 -6.296875 C 1.9375 -5.910156 2.101562 -5.585938 2.4375 -5.328125 L 4.5 -3.6875 C 5.3125 -3.039062 5.71875 -2.257812 5.71875 -1.34375 C 5.71875 -0.664062 5.445312 -0.0820312 4.90625 0.40625 C 4.4375 0.832031 3.8125 1.046875 3.03125 1.046875 C 2.5625 1.046875 2.140625 0.957031 1.765625 0.78125 C 1.066406 0.457031 0.644531 -0.0976562 0.5 -0.890625 C 0.476562 -1.015625 0.46875 -1.164062 0.46875 -1.34375 C 0.46875 -1.53125 0.519531 -1.78125 0.625 -2.09375 C 0.726562 -2.40625 0.929688 -2.722656 1.234375 -3.046875 Z M 1.328125 -2.96875 "/></g></g><g style="fill:#ffffff;fill-opacity:1;"><g transform="translate(277.486597, 239.621615)"><path style="stroke:none" d="M 0.8125 -0.109375 C 1.007812 -0.109375 1.175781 -0.175781 1.3125 -0.3125 C 1.445312 -0.457031 1.519531 -0.625 1.53125 -0.8125 L 1.53125 -7.0625 C 1.53125 -7.238281 1.457031 -7.390625 1.3125 -7.515625 C 1.175781 -7.640625 1.007812 -7.703125 0.8125 -7.703125 L 0.6875 -7.703125 L 0.671875 -7.8125 L 2.9375 -7.8125 C 3.164062 -7.8125 3.414062 -7.832031 3.6875 -7.875 C 3.957031 -7.914062 4.148438 -7.960938 4.265625 -8.015625 L 4.265625 -6.609375 L 4.15625 -6.609375 L 4.15625 -6.8125 C 4.15625 -6.988281 4.09375 -7.140625 3.96875 -7.265625 C 3.84375 -7.390625 3.695312 -7.457031 3.53125 -7.46875 L 2.25 -7.46875 L 2.25 -4.015625 L 4.375 -4.015625 C 4.519531 -4.023438 4.644531 -4.082031 4.75 -4.1875 C 4.851562 -4.289062 4.90625 -4.421875 4.90625 -4.578125 L 4.90625 -4.734375 L 5.015625 -4.734375 L 5.015625 -2.96875 L 4.90625 -2.96875 L 4.90625 -3.140625 C 4.90625 -3.285156 4.851562 -3.410156 4.75 -3.515625 C 4.65625 -3.617188 4.535156 -3.675781 4.390625 -3.6875 L 2.25 -3.6875 L 2.25 -0.34375 L 4.625 -0.34375 C 5.175781 -0.34375 5.597656 -0.460938 5.890625 -0.703125 C 6.179688 -0.953125 6.421875 -1.320312 6.609375 -1.8125 L 6.734375 -1.8125 L 6.078125 0 L 0.671875 0 L 0.671875 -0.109375 Z M 0.8125 -0.109375 "/></g></g><g style="fill:#ffffff;fill-opacity:1;"><g transform="translate(182.767785, 210.383813)"><path style="stroke:none" d="M 64.34375 -0.875 L 65.40625 -0.875 L 65.40625 0 L 46.15625 0 L 46.15625 -0.875 L 47.3125 -0.875 C 48.78125 -0.875 50.054688 -1.390625 51.140625 -2.421875 C 52.234375 -3.453125 52.835938 -4.734375 52.953125 -6.265625 L 52.953125 -29.21875 L 18.796875 -29.21875 L 18.796875 -6.171875 C 18.796875 2.054688 16.796875 7.585938 12.796875 10.421875 C 10.972656 11.710938 8.617188 12.679688 5.734375 13.328125 L 5.296875 12.53125 C 7.941406 11.125 9.894531 8.945312 11.15625 6 C 12.425781 3.0625 13.0625 -0.992188 13.0625 -6.171875 L 13.0625 -55.4375 C 13.0625 -56.957031 12.5 -58.25 11.375 -59.3125 C 10.257812 -60.375 8.941406 -60.90625 7.421875 -60.90625 L 6.359375 -60.90625 L 6.359375 -61.78125 L 25.59375 -61.78125 L 25.59375 -60.90625 L 24.453125 -60.90625 C 22.921875 -60.90625 21.609375 -60.375 20.515625 -59.3125 C 19.429688 -58.25 18.859375 -56.957031 18.796875 -55.4375 L 18.796875 -31.859375 L 52.953125 -31.859375 L 52.953125 -53.84375 C 53.015625 -61.375 54.691406 -66.609375 57.984375 -69.546875 C 59.984375 -71.316406 62.691406 -72.582031 66.109375 -73.34375 L 66.546875 -72.546875 C 63.898438 -71.140625 61.929688 -68.960938 60.640625 -66.015625 C 59.347656 -63.078125 58.703125 -59.019531 58.703125 -53.84375 L 58.703125 -6.4375 C 58.703125 -4.914062 59.242188 -3.609375 60.328125 -2.515625 C 61.421875 -1.421875 62.757812 -0.875 64.34375 -0.875 Z M 64.34375 -0.875 "/></g></g></g></svg>